<svg width="52" height="33" viewBox="0 0 52 33" fill="none" xmlns="http://www.w3.org/2000/svg">
    <path fill-rule="evenodd" clip-rule="evenodd" d="M23.7345 0.00135132C22.7595 0.00135132 21.8245 0.286071 21.135 0.792874C20.4456 1.29968 20.0583 1.98705 20.0583 2.70378C20.0583 3.42051 20.4456 4.10788 21.135 4.61469C21.8245 5.12149 22.7595 5.40621 23.7345 5.40621H33.7632C36.3021 5.44255 38.7202 6.20947 40.4982 7.54221C42.2763 8.87495 43.2722 10.6672 43.2722 12.5339C43.2722 14.4006 42.2763 16.1928 40.4982 17.5255C38.7202 18.8583 36.3021 19.6252 33.7632 19.6615H17.382V14.9917C17.3819 14.4573 17.1662 13.9349 16.7622 13.4906C16.3583 13.0463 15.7842 12.7 15.1125 12.4956C14.4409 12.2911 13.7018 12.2375 12.9888 12.3418C12.2758 12.446 11.6208 12.7033 11.1067 13.0811L1.08537 20.4479C0.569092 20.8249 0.216644 21.3061 0.0726683 21.8305C-0.0713073 22.3549 -0.000332266 22.8989 0.276603 23.3936C0.455512 23.7179 0.72265 24.0124 1.07802 24.2773L11.1067 31.6495C11.6208 32.0273 12.2758 32.2846 12.9888 32.3888C13.7018 32.4931 14.4409 32.4396 15.1125 32.2351C15.7842 32.0306 16.3583 31.6843 16.7622 31.24C17.1662 30.7957 17.3819 30.2733 17.382 29.7389V25.0664H33.7632C36.0231 25.0908 38.267 24.7846 40.3645 24.1658C42.462 23.5469 44.3712 22.6277 45.9811 21.4615C47.5909 20.2953 48.8693 18.9055 49.7419 17.3728C50.6145 15.8402 51.0638 14.1953 51.0638 12.5339C51.0638 10.8724 50.6145 9.22753 49.7419 7.69489C48.8693 6.16225 47.5909 4.77243 45.9811 3.60626C44.3712 2.44008 42.462 1.52083 40.3645 0.901964C38.267 0.283094 36.0231 -0.0230443 33.7632 0.00135132H23.7345Z" fill="black"/>
    </svg>
    