<svg width="25" height="24" viewBox="0 0 25 24" fill="none" xmlns="http://www.w3.org/2000/svg">
    <path d="M22.3868 -0.00439453H2.60424C2.07957 -0.00439453 1.57639 0.204029 1.2054 0.575025C0.8344 0.94602 0.625977 1.4492 0.625977 1.97387V21.7565C0.625977 22.2811 0.8344 22.7843 1.2054 23.1553C1.57639 23.5263 2.07957 23.7347 2.60424 23.7347H22.3868C22.9115 23.7347 23.4147 23.5263 23.7857 23.1553C24.1567 22.7843 24.3651 22.2811 24.3651 21.7565V1.97387C24.3651 1.4492 24.1567 0.94602 23.7857 0.575025C23.4147 0.204029 22.9115 -0.00439453 22.3868 -0.00439453ZM19.4195 12.8543H13.4847V18.7891C13.4847 19.0514 13.3805 19.303 13.195 19.4885C13.0095 19.674 12.7579 19.7782 12.4955 19.7782C12.2332 19.7782 11.9816 19.674 11.7961 19.4885C11.6106 19.303 11.5064 19.0514 11.5064 18.7891V12.8543H5.57163C5.3093 12.8543 5.05771 12.7501 4.87221 12.5646C4.68671 12.3791 4.5825 12.1275 4.5825 11.8652C4.5825 11.6028 4.68671 11.3512 4.87221 11.1658C5.05771 10.9803 5.3093 10.876 5.57163 10.876H11.5064V4.94126C11.5064 4.67892 11.6106 4.42733 11.7961 4.24184C11.9816 4.05634 12.2332 3.95213 12.4955 3.95213C12.7579 3.95213 13.0095 4.05634 13.195 4.24184C13.3805 4.42733 13.4847 4.67892 13.4847 4.94126V10.876H19.4195C19.6818 10.876 19.9334 10.9803 20.1189 11.1658C20.3044 11.3512 20.4086 11.6028 20.4086 11.8652C20.4086 12.1275 20.3044 12.3791 20.1189 12.5646C19.9334 12.7501 19.6818 12.8543 19.4195 12.8543Z" fill="black"/>
    </svg>
    