<svg width="20" height="18" viewBox="0 0 20 18" fill="none" xmlns="http://www.w3.org/2000/svg">
<path fill-rule="evenodd" clip-rule="evenodd" d="M9.27727 0.000745511C8.89617 0.000745511 8.53068 0.157823 8.2612 0.437422C7.99172 0.717022 7.84033 1.09624 7.84033 1.49165C7.84033 1.88707 7.99172 2.26629 8.2612 2.54589C8.53068 2.82548 8.89617 2.98256 9.27727 2.98256H13.1973C14.1896 3.00261 15.1348 3.42571 15.8298 4.16098C16.5248 4.89624 16.9141 5.88499 16.9141 6.91483C16.9141 7.94467 16.5248 8.93343 15.8298 9.66869C15.1348 10.404 14.1896 10.8271 13.1973 10.8471H6.79423V8.27081C6.79417 7.97599 6.70986 7.6878 6.55196 7.44268C6.39406 7.19756 6.16967 7.00651 5.90714 6.8937C5.64461 6.78088 5.35573 6.75135 5.07703 6.80885C4.79833 6.86635 4.54232 7.0083 4.34136 7.21674L0.424246 11.281C0.222445 11.489 0.0846811 11.7544 0.0284044 12.0437C-0.0278724 12.333 -0.000129876 12.6331 0.108118 12.906C0.178049 13.085 0.282467 13.2475 0.421372 13.3936L4.34136 17.4608C4.54232 17.6692 4.79833 17.8112 5.07703 17.8687C5.35573 17.9262 5.64461 17.8966 5.90714 17.7838C6.16967 17.671 6.39406 17.48 6.55196 17.2348C6.70986 16.9897 6.79417 16.7015 6.79423 16.4067V13.8289H13.1973C14.0806 13.8424 14.9577 13.6735 15.7776 13.3321C16.5974 12.9906 17.3437 12.4835 17.9729 11.8401C18.6022 11.1968 19.1019 10.43 19.443 9.58446C19.784 8.73891 19.9597 7.83145 19.9597 6.91483C19.9597 5.99822 19.784 5.09075 19.443 4.24521C19.1019 3.39966 18.6022 2.63291 17.9729 1.98954C17.3437 1.34617 16.5974 0.839032 15.7776 0.497606C14.9577 0.156181 14.0806 -0.0127134 13.1973 0.000745511H9.27727Z" fill="#FEB601"/>
</svg>
