<svg width="24" height="25" viewBox="0 0 24 25" fill="none" xmlns="http://www.w3.org/2000/svg">
    <path d="M20.8103 12.1216C21.2895 12.4552 21.7167 12.8337 22.0921 13.2568C22.4674 13.68 22.7908 14.1439 23.0624 14.6484C23.3339 15.153 23.5336 15.686 23.6613 16.2476C23.7891 16.8091 23.861 17.3828 23.877 17.9688C23.877 18.9372 23.6973 19.8486 23.3379 20.7031C22.9785 21.5576 22.4834 22.3022 21.8525 22.937C21.2216 23.5718 20.4908 24.0723 19.6603 24.4385C18.8297 24.8047 17.9353 24.9919 16.977 25C16.2502 25 15.5474 24.8901 14.8686 24.6704C14.1898 24.4507 13.5669 24.1333 12.9999 23.7183C12.4329 23.3032 11.9297 22.8068 11.4905 22.229C11.0513 21.6512 10.7118 21.0124 10.4723 20.3125H0.876953V1.5625H3.94362V0H5.47695V1.5625H16.2103V0H17.7436V1.5625H20.8103V12.1216ZM2.41029 3.125V6.25H19.277V3.125H17.7436V4.6875H16.2103V3.125H5.47695V4.6875H3.94362V3.125H2.41029ZM10.1129 18.75C10.0889 18.4977 10.077 18.2373 10.077 17.9688C10.077 17.2689 10.1728 16.5894 10.3645 15.9302C10.5561 15.271 10.8476 14.6484 11.2389 14.0625H10.077V12.5H11.6103V13.5498C11.9377 13.1348 12.3011 12.7686 12.7004 12.4512C13.0997 12.1338 13.5309 11.8612 13.9941 11.6333C14.4573 11.4054 14.9405 11.2345 15.4436 11.1206C15.9467 11.0067 16.4579 10.9456 16.977 10.9375C17.7756 10.9375 18.5422 11.0718 19.277 11.3403V7.8125H2.41029V18.75H10.1129ZM16.977 23.4375C17.7197 23.4375 18.4145 23.2951 19.0613 23.0103C19.7082 22.7254 20.2752 22.3348 20.7624 21.8384C21.2495 21.342 21.6329 20.7642 21.9124 20.105C22.1919 19.4458 22.3356 18.7337 22.3436 17.9688C22.3436 17.2119 22.2039 16.5039 21.9243 15.8447C21.6448 15.1855 21.2615 14.6077 20.7743 14.1113C20.2872 13.6149 19.7202 13.2243 19.0733 12.9395C18.4264 12.6546 17.7276 12.5081 16.977 12.5C16.2342 12.5 15.5395 12.6424 14.8926 12.9272C14.2457 13.2121 13.6787 13.6027 13.1915 14.0991C12.7044 14.5955 12.321 15.1733 12.0415 15.8325C11.762 16.4917 11.6183 17.2038 11.6103 17.9688C11.6103 18.7256 11.75 19.4336 12.0296 20.0928C12.3091 20.752 12.6924 21.3298 13.1796 21.8262C13.6667 22.3226 14.2337 22.7132 14.8806 22.998C15.5275 23.2829 16.2263 23.4294 16.977 23.4375ZM17.7436 17.1875H20.0436V18.75H16.2103V14.0625H17.7436V17.1875ZM3.94362 12.5H5.47695V14.0625H3.94362V12.5ZM7.01029 12.5H8.54362V14.0625H7.01029V12.5ZM7.01029 9.375H8.54362V10.9375H7.01029V9.375ZM3.94362 15.625H5.47695V17.1875H3.94362V15.625ZM7.01029 15.625H8.54362V17.1875H7.01029V15.625ZM11.6103 10.9375H10.077V9.375H11.6103V10.9375ZM14.677 10.9375H13.1436V9.375H14.677V10.9375ZM17.7436 10.9375H16.2103V9.375H17.7436V10.9375Z" fill="black"/>
    </svg>